<svg id="Layer_1" data-name="Layer 1" xmlns="http://www.w3.org/2000/svg" viewBox="0 0 414.1387 409.67359"><defs><style>.cls-1{fill:#00a2e8;}.cls-2{fill:#fff;}</style></defs><rect class="cls-1" x="85.11679" y="84.52283" width="243" height="243" rx="22.97037"/><path d="M305.14609,338.23857H108.087a33.00817,33.00817,0,0,1-32.97022-32.9707V108.20878A33.00775,33.00775,0,0,1,108.087,75.23857H305.14609a33.00816,33.00816,0,0,1,32.9707,32.97021V305.26787A33.00858,33.00858,0,0,1,305.14609,338.23857Zm-197.05908-243a12.98483,12.98483,0,0,0-12.97022,12.97021V305.26787a12.98494,12.98494,0,0,0,12.97022,12.9707H305.14609a12.985,12.985,0,0,0,12.9707-12.9707V108.20878a12.98494,12.98494,0,0,0-12.9707-12.97021Z"/><rect x="129.39282" y="18.2719" width="15.58032" height="60"/><rect x="164.10973" y="18.2719" width="15.58032" height="60"/><rect x="198.82663" y="18.2719" width="15.58032" height="60"/><rect x="233.54354" y="18.2719" width="15.58032" height="60"/><rect x="268.26045" y="18.2719" width="15.58032" height="60"/><rect x="357.62771" y="107.30476" width="15.58032" height="60" transform="translate(502.72263 -228.11311) rotate(90)"/><rect x="357.62771" y="142.02166" width="15.58032" height="60" transform="translate(537.43953 -193.3962) rotate(90)"/><rect x="357.62771" y="176.73857" width="15.58032" height="60" transform="translate(572.15644 -158.6793) rotate(90)"/><rect x="357.62771" y="211.45548" width="15.58032" height="60" transform="translate(606.87334 -123.96239) rotate(90)"/><rect x="357.62771" y="246.17238" width="15.58032" height="60" transform="translate(641.59025 -89.24549) rotate(90)"/><rect x="268.26045" y="328.2714" width="15.58032" height="60" transform="translate(552.10109 716.54289) rotate(-179.99998)"/><rect x="233.54354" y="328.27139" width="15.58032" height="60" transform="translate(482.66728 716.54285) rotate(-179.99998)"/><rect x="198.82663" y="328.27138" width="15.58032" height="60" transform="translate(413.23347 716.54282) rotate(-179.99998)"/><rect x="164.10973" y="328.27136" width="15.58032" height="60" transform="translate(343.79966 716.54278) rotate(-179.99998)"/><rect x="129.39282" y="328.27135" width="15.58032" height="60" transform="translate(274.36585 716.54275) rotate(-179.99998)"/><rect x="39.48882" y="246.17238" width="15.58032" height="60" transform="matrix(0, -1, 1, 0, -228.89341, 323.45136)"/><rect x="39.48882" y="211.45548" width="15.58032" height="60" transform="matrix(0, -1, 1, 0, -194.1765, 288.73445)"/><rect x="39.48881" y="176.73857" width="15.58032" height="60" transform="matrix(0, -1, 1, 0, -159.4596, 254.01755)"/><rect x="39.48881" y="142.02166" width="15.58032" height="60" transform="matrix(0, -1, 1, 0, -124.74269, 219.30064)"/><rect x="39.48881" y="107.30476" width="15.58032" height="60" transform="matrix(0, -1, 1, 0, -90.02579, 184.58373)"/><path class="cls-2" d="M121.15185,183.94749l-9.867,64.66747,8.867,1,3.036-17.349a42.26366,42.26366,0,0,0,9.108.358c9.8178-.92539,12.626-5.313,12.626-5.313s-.166,1.49805,3.20759,2.88842a24.40229,24.40229,0,0,0,11.74342,1.518l3.036-6.072-9.867-.759,7.843-39.974h-9.867s-5.61818,29.74161-7.37917,33.396c-.97,2.01285-3.24684,4.301-9.31884,5.819s-8.855-2.036-8.855-2.036l5.16542-37.9922Z"/><path class="cls-2" d="M174.5763,164.55364h13.43262l19.90283,58.519,19.76074-58.519h13.33789V233.768h-8.95215V192.9179q0-2.12035.09473-7.02051.09375-4.8999.09375-10.50683L212.486,233.768h-9.291l-19.94922-58.37744v2.12011q0,2.54444.14111,7.75049.14136,5.20678.14161,7.65674V233.768H174.5763Z"/><path class="cls-2" d="M241.51038,234.268h-9.95215V192.9179c0-1.42676.03223-3.792.09473-7.03027.04492-2.34424.07422-4.83594.08691-7.439L212.84436,234.268H202.83753l-19.08789-55.85694c.01269,1.66211.05859,3.95508.1372,6.83643.09375,3.46533.14161,6.04639.14161,7.67041V234.268H174.0763V164.05364h14.29053l19.543,57.46143,19.40332-57.46143h14.19727Zm-8.95215-1h7.95215V165.05364H228.03186L207.9137,224.6303,187.651,165.05364H175.0763V233.268h7.95215V192.9179c0-1.61523-.04737-4.18652-.14161-7.64307-.09375-3.45263-.14111-6.06494-.14111-7.76416v-5.12939L203.55237,233.268h8.5752l20.61914-60.91407v3.03663c0,3.72363-.03125,7.26171-.09375,10.5166-.0625,3.23193-.09473,5.59082-.09473,7.01074Z"/><path class="cls-2" d="M260.01819,164.55364h9.376v60.96924h34.72461V233.768H260.01819Z"/><path class="cls-2" d="M304.61878,234.268H259.51819V164.05364h10.376v60.96924h34.72461Zm-44.10059-1h43.10059v-7.24512H268.89417V165.05364h-8.376Z"/></svg>