<svg id="svg" version="1.1" xmlns="http://www.w3.org/2000/svg" xmlns:xlink="http://www.w3.org/1999/xlink" width="400" height="382.2660098522167" viewBox="0, 0, 400,382.2660098522167"><g id="svgg"><path id="path0" d="M0.000 191.205 L 0.000 382.409 200.000 382.409 L 400.000 382.409 400.000 191.205 L 400.000 0.000 200.000 0.000 L 0.000 0.000 0.000 191.205 M134.790 10.831 L 136.515 12.483 136.613 38.460 L 136.711 64.436 144.933 64.436 L 153.155 64.436 153.253 41.211 L 153.352 17.987 154.305 17.363 C 155.129 16.823,155.258 16.454,155.258 14.647 C 155.258 12.707,155.375 12.436,156.883 10.874 L 158.509 9.190 162.588 9.184 L 166.668 9.178 168.324 10.769 L 169.981 12.361 170.172 38.398 L 170.363 64.436 178.394 64.436 L 186.424 64.436 186.616 41.362 L 186.807 18.288 187.667 17.591 C 188.358 17.032,188.528 16.506,188.528 14.923 C 188.528 12.734,189.026 11.472,189.889 11.472 C 190.202 11.472,190.613 11.066,190.802 10.568 C 191.559 8.579,201.530 8.502,201.530 10.486 C 201.530 10.770,201.959 11.283,202.483 11.627 L 203.436 12.251 203.535 38.344 L 203.633 64.436 211.855 64.436 L 220.076 64.436 220.175 41.211 L 220.274 17.987 221.227 17.363 C 222.053 16.821,222.180 16.456,222.180 14.613 C 222.180 12.593,222.265 12.407,223.907 10.833 L 225.635 9.178 229.603 9.178 L 233.572 9.178 235.330 10.839 L 237.088 12.499 237.187 38.468 L 237.285 64.436 246.463 64.436 L 255.641 64.436 255.739 41.211 L 255.838 17.987 256.791 17.363 C 257.621 16.819,257.744 16.459,257.744 14.573 C 257.744 12.707,257.889 12.269,258.795 11.410 C 259.374 10.862,260.069 10.135,260.340 9.796 C 261.686 8.109,270.746 9.236,270.746 11.090 C 270.746 11.300,270.994 11.472,271.297 11.472 C 272.400 11.472,272.470 12.855,272.658 38.432 L 272.849 64.436 288.044 64.536 L 303.239 64.636 303.862 65.588 C 304.409 66.422,304.761 66.539,306.727 66.539 C 308.696 66.539,309.045 66.655,309.595 67.495 C 310.057 68.200,310.558 68.451,311.501 68.451 C 312.205 68.451,313.002 68.711,313.274 69.029 C 314.631 70.620,316.764 72.658,317.072 72.658 C 317.262 72.658,317.582 73.088,317.782 73.614 C 318.086 74.413,318.396 74.570,319.671 74.570 C 321.337 74.570,321.989 75.256,321.989 77.012 C 321.989 77.896,324.323 80.688,325.062 80.688 C 325.215 80.688,325.431 81.032,325.541 81.451 C 325.650 81.871,326.057 82.331,326.446 82.475 C 327.428 82.838,327.712 83.359,327.719 84.811 C 327.723 85.654,327.945 86.147,328.394 86.313 C 329.427 86.694,329.625 87.209,329.631 89.535 C 329.636 91.405,329.762 91.773,330.587 92.313 L 331.537 92.936 331.639 104.307 L 331.740 115.679 354.964 115.777 L 378.189 115.876 378.813 116.829 C 379.355 117.655,379.720 117.782,381.563 117.782 C 383.583 117.782,383.769 117.867,385.343 119.510 L 386.998 121.237 386.998 125.206 L 386.998 129.174 385.337 130.932 L 383.676 132.691 357.708 132.789 L 331.740 132.887 331.740 140.918 L 331.740 148.948 354.817 149.140 L 377.893 149.331 378.731 150.382 C 379.469 151.308,379.830 151.434,381.746 151.434 C 383.644 151.434,384.001 151.556,384.548 152.390 C 384.892 152.916,385.406 153.346,385.690 153.346 C 386.643 153.346,386.998 154.800,386.998 158.700 C 386.998 162.662,386.644 164.054,385.637 164.054 C 385.323 164.054,384.904 164.484,384.704 165.010 C 384.504 165.535,384.293 166.006,384.235 166.055 C 384.177 166.103,372.342 166.233,357.935 166.341 L 331.740 166.539 331.740 174.570 L 331.740 182.600 354.985 182.792 C 379.051 182.990,378.932 182.981,378.962 184.417 C 378.965 184.575,379.995 184.704,381.252 184.704 C 383.451 184.704,383.601 184.768,385.267 186.435 L 386.998 188.165 386.997 192.266 L 386.997 196.367 385.372 197.897 L 383.748 199.426 357.744 199.618 L 331.740 199.809 331.740 208.031 L 331.740 216.252 354.964 216.351 L 378.189 216.450 378.813 217.403 C 379.355 218.229,379.720 218.356,381.563 218.356 C 383.583 218.356,383.769 218.441,385.343 220.083 L 386.998 221.811 386.998 225.779 L 386.998 229.748 385.337 231.506 L 383.676 233.264 357.708 233.363 L 331.740 233.461 331.740 242.639 L 331.740 251.816 354.964 251.915 L 378.189 252.014 378.813 252.967 C 379.361 253.803,379.712 253.920,381.680 253.920 C 383.649 253.920,383.997 254.036,384.548 254.876 C 384.892 255.402,385.406 255.832,385.690 255.832 C 386.643 255.832,386.998 257.286,386.998 261.185 C 386.998 265.147,386.644 266.539,385.637 266.539 C 385.323 266.539,384.904 266.969,384.704 267.495 C 384.504 268.021,384.293 268.491,384.235 268.540 C 384.177 268.589,372.342 268.718,357.935 268.827 L 331.740 269.025 331.638 279.250 L 331.536 289.474 330.586 290.097 C 329.891 290.552,329.637 291.059,329.637 291.986 C 329.637 293.193,328.841 294.455,328.080 294.455 C 327.884 294.455,327.725 295.045,327.725 295.766 C 327.725 296.993,326.941 298.279,326.193 298.279 C 326.012 298.279,325.758 298.615,325.628 299.024 C 325.498 299.434,325.056 299.876,324.646 300.006 C 324.125 300.171,323.901 300.589,323.901 301.389 C 323.901 302.820,323.285 304.015,322.549 304.015 C 322.241 304.015,321.989 304.183,321.989 304.388 C 321.989 305.428,318.498 308.222,317.198 308.222 C 316.468 308.222,315.870 308.374,315.870 308.559 C 315.870 309.501,312.673 312.046,311.489 312.046 C 310.546 312.046,310.154 312.270,309.821 313.002 C 309.422 313.877,309.178 313.958,306.936 313.958 C 304.748 313.958,304.419 314.060,303.862 314.909 L 303.239 315.860 289.956 315.961 L 276.673 316.061 276.482 339.307 C 276.284 363.372,276.292 363.254,274.857 363.283 C 274.699 363.286,274.570 364.347,274.570 365.641 C 274.570 367.940,274.531 368.030,272.809 369.656 L 271.048 371.319 267.069 371.319 C 263.186 371.319,263.062 371.292,261.911 370.192 C 261.262 369.572,260.532 368.998,260.289 368.917 C 259.963 368.809,259.797 361.870,259.656 342.416 L 259.465 316.061 251.243 316.061 L 243.021 316.061 242.922 339.286 L 242.824 362.510 241.871 363.135 C 241.021 363.692,240.918 364.021,240.918 366.187 C 240.918 368.308,240.810 368.673,240.065 369.072 C 239.595 369.323,238.895 369.932,238.507 370.424 C 237.846 371.264,237.549 371.319,233.655 371.319 L 229.508 371.319 227.851 369.728 L 226.195 368.137 226.004 342.099 L 225.813 316.061 217.782 316.061 L 209.751 316.061 209.560 339.307 C 209.362 363.372,209.370 363.254,207.935 363.283 C 207.777 363.286,207.648 364.321,207.648 365.583 C 207.648 367.838,206.863 369.407,205.736 369.407 C 205.526 369.407,205.354 369.659,205.354 369.967 C 205.354 370.965,203.951 371.319,200.000 371.319 C 196.122 371.319,194.646 370.964,194.646 370.029 C 194.646 369.754,194.217 369.335,193.693 369.096 L 192.740 368.661 192.641 342.361 L 192.543 316.061 184.321 316.061 L 176.099 316.061 176.001 339.286 L 175.902 362.510 174.949 363.135 C 174.118 363.679,173.996 364.038,173.996 365.937 C 173.996 368.030,173.928 368.178,172.265 369.717 L 170.534 371.319 166.569 371.319 L 162.604 371.319 160.846 369.658 L 159.088 367.998 158.989 342.029 L 158.891 316.061 149.713 316.061 L 140.535 316.061 140.437 339.286 L 140.338 362.510 139.385 363.135 C 138.534 363.693,138.432 364.020,138.432 366.209 C 138.432 368.451,138.351 368.696,137.476 369.094 C 136.950 369.334,136.520 369.754,136.520 370.029 C 136.520 370.970,135.035 371.319,131.031 371.319 L 127.022 371.319 125.366 369.728 L 123.709 368.137 123.518 342.099 L 123.327 316.061 109.088 315.961 L 94.849 315.861 94.226 314.909 C 93.766 314.208,93.264 313.958,92.317 313.958 C 91.367 313.958,90.867 313.708,90.405 313.002 C 89.961 312.324,89.435 312.046,88.599 312.046 C 87.678 312.046,87.026 311.627,85.624 310.134 C 84.345 308.771,83.538 308.222,82.815 308.222 C 82.246 308.222,81.385 307.806,80.854 307.275 C 80.333 306.754,79.566 306.145,79.150 305.923 C 78.734 305.700,78.394 305.286,78.394 305.002 C 78.394 304.718,77.964 304.204,77.438 303.859 C 76.720 303.389,76.482 302.900,76.482 301.895 C 76.482 300.839,76.280 300.465,75.526 300.122 C 75.000 299.882,74.570 299.525,74.570 299.327 C 74.570 299.130,74.054 298.486,73.423 297.897 C 72.689 297.211,72.275 296.448,72.275 295.780 C 72.275 295.155,71.890 294.377,71.319 293.848 C 70.718 293.291,70.363 292.546,70.363 291.840 C 70.363 291.066,70.067 290.525,69.407 290.093 L 68.451 289.466 68.451 280.106 L 68.451 270.746 45.488 270.746 L 22.526 270.746 21.640 269.790 C 20.898 268.989,20.405 268.834,18.610 268.834 C 16.685 268.834,16.382 268.720,15.642 267.718 C 15.188 267.105,14.495 266.519,14.101 266.416 C 13.450 266.246,13.384 265.802,13.384 261.559 L 13.384 256.889 14.866 255.407 L 16.348 253.925 42.304 253.827 L 68.260 253.728 68.260 245.507 L 68.260 237.285 45.019 237.186 L 21.778 237.088 21.344 236.135 C 20.956 235.283,20.680 235.182,18.757 235.182 C 16.800 235.182,16.458 235.049,14.994 233.725 L 13.384 232.268 13.384 227.598 C 13.384 222.988,13.397 222.923,14.340 222.493 C 14.866 222.253,15.299 221.956,15.302 221.832 C 15.338 220.459,15.236 220.465,42.147 220.268 L 68.260 220.076 68.363 211.950 L 68.466 203.824 45.480 203.824 L 22.493 203.824 21.486 202.677 C 20.601 201.668,20.230 201.530,18.417 201.530 C 16.530 201.530,16.227 201.403,14.869 200.045 L 13.384 198.560 13.384 193.952 C 13.384 189.832,13.458 189.321,14.080 189.123 C 14.463 189.002,15.156 188.388,15.621 187.759 L 16.466 186.616 42.466 186.616 L 68.466 186.616 68.363 178.489 L 68.260 170.363 45.227 170.265 L 22.193 170.166 21.569 169.213 C 21.022 168.378,20.669 168.260,18.722 168.260 C 16.847 168.260,16.389 168.120,15.795 167.365 C 15.408 166.872,14.707 166.264,14.237 166.013 C 13.427 165.579,13.384 165.324,13.384 160.936 L 13.384 156.315 14.866 154.833 L 16.348 153.351 42.304 153.253 L 68.260 153.155 68.260 143.977 L 68.260 134.799 45.015 134.608 C 20.949 134.410,21.068 134.418,21.038 132.983 C 21.035 132.825,20.012 132.696,18.765 132.696 C 16.638 132.696,15.296 132.118,15.296 131.200 C 15.296 131.039,14.861 130.708,14.329 130.466 L 13.361 130.025 13.468 125.146 C 13.570 120.503,13.617 120.249,14.436 119.890 C 14.909 119.683,15.299 119.424,15.302 119.317 C 15.342 117.977,15.325 117.978,42.147 117.782 L 68.260 117.591 68.367 112.674 C 68.473 107.842,68.458 107.742,67.507 106.861 C 66.070 105.529,66.063 101.286,67.495 100.347 C 68.388 99.762,68.451 99.511,68.451 96.542 C 68.451 93.440,68.906 92.161,70.008 92.161 C 70.203 92.161,70.363 91.120,70.363 89.848 C 70.363 87.872,70.503 87.406,71.319 86.649 C 71.873 86.136,72.275 85.339,72.275 84.755 C 72.275 84.041,72.889 83.139,74.379 81.661 C 75.883 80.168,76.482 79.283,76.482 78.552 C 76.482 77.112,81.391 72.275,82.852 72.275 C 83.585 72.275,84.379 71.735,85.660 70.363 C 87.048 68.877,87.705 68.451,88.612 68.451 C 89.434 68.451,89.963 68.169,90.405 67.495 C 90.963 66.642,91.292 66.539,93.446 66.539 C 95.648 66.539,95.900 66.455,96.295 65.589 L 96.728 64.639 108.115 64.537 L 119.503 64.436 119.694 41.191 C 119.892 17.125,119.884 17.244,121.319 17.214 C 121.477 17.211,121.606 16.180,121.606 14.924 C 121.606 12.725,121.670 12.575,123.337 10.909 L 125.068 9.178 129.066 9.178 L 133.065 9.178 134.790 10.831 M173.856 156.913 C 173.733 157.403,173.198 158.002,172.667 158.244 L 171.702 158.683 171.702 190.390 L 171.702 222.097 172.620 222.327 C 173.187 222.470,173.690 222.996,173.938 223.707 C 174.548 225.457,178.409 225.476,179.017 223.732 C 179.262 223.029,179.720 222.563,180.240 222.489 L 181.071 222.371 181.169 198.228 C 181.275 172.233,181.322 171.651,183.122 173.818 C 183.466 174.231,184.241 174.888,184.843 175.277 C 185.770 175.874,185.908 176.172,185.741 177.203 C 185.570 178.256,185.701 178.513,186.697 179.085 C 187.836 179.739,187.847 179.776,187.602 182.130 C 187.356 184.488,187.365 184.519,188.514 185.164 C 189.468 185.699,189.675 186.058,189.675 187.180 C 189.675 188.281,189.868 188.632,190.677 189.001 C 191.638 189.438,191.671 189.555,191.485 191.873 C 191.295 194.230,191.317 194.303,192.395 194.860 C 193.326 195.341,193.499 195.664,193.499 196.925 C 193.499 198.083,193.671 198.473,194.264 198.662 C 195.411 199.026,195.726 199.974,195.434 202.182 C 195.180 204.102,195.208 204.188,196.234 204.613 C 197.399 205.096,197.887 206.091,197.522 207.242 C 197.354 207.772,197.538 208.116,198.165 208.447 C 199.336 209.064,199.605 209.526,199.612 210.933 C 199.616 211.819,199.857 212.223,200.574 212.550 C 201.457 212.952,201.530 213.184,201.530 215.580 C 201.530 217.904,201.619 218.214,202.390 218.552 C 203.047 218.840,203.278 219.301,203.366 220.502 C 203.455 221.724,203.683 222.167,204.388 222.488 C 204.887 222.715,205.351 223.298,205.420 223.783 C 205.615 225.163,209.887 225.115,210.580 223.725 C 210.838 223.209,211.402 222.655,211.834 222.495 C 212.446 222.269,212.620 221.868,212.620 220.683 C 212.620 219.401,212.785 219.083,213.671 218.658 C 214.686 218.171,214.718 218.065,214.593 215.582 C 214.468 213.114,214.502 212.994,215.453 212.633 C 216.291 212.314,216.444 212.020,216.444 210.727 C 216.444 209.407,216.604 209.114,217.616 208.591 C 218.629 208.067,218.756 207.836,218.548 206.890 C 218.346 205.967,218.497 205.655,219.506 204.909 C 220.673 204.046,220.697 203.967,220.449 201.824 C 220.198 199.660,220.213 199.614,221.375 198.952 C 222.368 198.387,222.558 198.048,222.560 196.837 C 222.562 195.679,222.747 195.311,223.499 194.968 C 224.235 194.632,224.460 194.206,224.550 192.971 C 224.643 191.710,224.863 191.307,225.673 190.921 C 226.643 190.458,226.673 190.348,226.482 187.964 C 226.289 185.564,226.314 185.477,227.291 185.106 C 228.111 184.794,228.298 184.477,228.298 183.401 C 228.298 182.368,228.550 181.900,229.446 181.262 C 230.325 180.635,230.593 180.150,230.593 179.177 C 230.593 178.246,230.847 177.742,231.549 177.282 C 232.262 176.814,232.505 176.321,232.505 175.339 C 232.505 173.911,233.273 173.231,234.889 173.231 C 236.755 173.231,236.711 172.606,236.711 199.044 C 236.711 217.897,236.823 224.050,237.170 224.398 C 237.702 224.930,243.437 225.039,243.755 224.524 C 243.869 224.340,243.972 208.896,243.986 190.202 L 244.010 156.214 238.829 156.108 L 233.648 156.001 232.337 157.312 C 231.385 158.264,230.993 159.026,230.905 160.093 C 230.810 161.242,230.564 161.667,229.776 162.043 C 228.807 162.505,228.776 162.616,228.967 164.994 C 229.157 167.365,229.125 167.483,228.178 167.915 C 227.385 168.276,227.167 168.676,227.075 169.935 C 226.980 171.224,226.767 171.597,225.885 172.018 C 224.996 172.442,224.847 172.707,225.024 173.550 C 225.272 174.736,225.006 175.232,223.771 175.883 C 222.940 176.321,222.895 176.509,223.133 178.559 C 223.402 180.881,222.875 182.027,221.535 182.027 C 221.086 182.027,220.991 182.323,221.135 183.270 C 221.369 184.811,220.860 185.851,219.872 185.851 C 219.238 185.851,219.120 186.116,219.120 187.540 C 219.120 189.042,219.004 189.268,218.069 189.580 C 217.057 189.918,217.017 190.030,217.017 192.575 C 217.017 194.934,216.926 195.260,216.175 195.590 C 215.542 195.867,215.304 196.342,215.219 197.499 C 215.127 198.743,214.905 199.134,214.061 199.536 C 213.056 200.016,213.026 200.116,213.248 202.246 C 213.464 204.310,213.412 204.511,212.476 205.248 C 211.787 205.790,211.472 206.401,211.472 207.198 C 211.472 209.524,208.826 210.258,207.204 208.382 C 206.855 207.979,206.394 207.648,206.180 207.648 C 205.056 207.648,204.561 206.412,204.809 204.222 C 205.052 202.076,205.030 202.006,203.843 201.161 C 202.895 200.485,202.653 200.060,202.741 199.221 C 202.824 198.425,202.582 197.932,201.809 197.324 C 201.040 196.720,200.765 196.162,200.765 195.213 C 200.765 194.184,200.552 193.820,199.713 193.413 C 198.713 192.929,198.668 192.790,198.789 190.589 C 198.906 188.455,198.838 188.224,197.928 187.627 C 197.141 187.111,196.941 186.673,196.941 185.460 C 196.941 184.397,196.776 183.939,196.394 183.939 C 195.092 183.939,194.574 182.770,194.844 180.444 C 195.091 178.317,195.058 178.195,194.162 177.854 C 193.051 177.432,192.744 176.795,193.002 175.445 C 193.155 174.644,192.984 174.357,192.102 173.932 C 191.070 173.435,191.012 173.275,190.988 170.840 C 190.974 169.428,190.888 168.227,190.797 168.171 C 190.706 168.115,190.287 167.877,189.866 167.642 C 189.318 167.337,189.094 166.802,189.076 165.754 C 189.054 164.501,188.897 164.240,187.976 163.933 C 186.920 163.581,186.904 163.533,187.093 161.187 C 187.282 158.833,187.264 158.780,185.854 157.411 L 184.423 156.023 179.251 156.023 C 174.155 156.023,174.076 156.036,173.856 156.913 M264.511 156.266 C 264.365 156.413,264.245 171.300,264.245 189.349 L 264.245 222.165 265.176 222.399 C 265.747 222.542,266.256 223.061,266.494 223.745 L 266.882 224.857 283.651 224.857 C 302.500 224.857,301.338 225.058,301.338 221.797 C 301.338 218.572,302.100 218.738,287.304 218.738 C 280.090 218.738,274.147 218.695,274.097 218.642 C 274.048 218.590,273.919 204.522,273.811 187.380 L 273.614 156.214 269.196 156.107 C 266.766 156.048,264.658 156.120,264.511 156.266 M116.766 176.117 C 116.641 176.442,116.630 177.517,116.742 178.505 C 116.969 180.518,116.577 181.549,115.423 181.976 C 114.684 182.249,114.646 182.552,114.701 187.691 L 114.759 193.117 113.785 193.560 C 112.821 194.000,112.811 194.051,112.811 198.540 C 112.811 202.992,112.793 203.084,111.866 203.506 C 110.951 203.923,110.919 204.073,110.815 208.369 C 110.709 212.750,110.696 212.808,109.688 213.290 L 108.668 213.778 108.882 218.132 L 109.097 222.486 107.905 223.102 L 106.713 223.718 106.948 227.295 C 107.238 231.705,107.017 232.699,105.642 233.178 L 104.587 233.546 104.935 237.997 L 105.282 242.447 107.526 242.447 C 109.574 242.447,109.802 242.363,110.138 241.481 C 110.340 240.950,110.889 240.373,111.357 240.200 C 112.161 239.902,112.203 239.697,112.097 236.625 L 111.984 233.366 113.216 232.488 L 114.448 231.611 114.250 227.565 C 114.002 222.503,113.978 222.562,116.304 222.562 C 118.072 222.562,118.232 222.642,118.604 223.709 L 119.004 224.857 123.193 224.857 L 127.382 224.857 127.782 223.709 C 128.171 222.593,128.249 222.562,130.668 222.562 C 133.314 222.562,134.100 222.076,135.906 219.320 C 136.711 218.091,138.879 218.306,140.230 219.750 C 140.693 220.245,141.256 220.650,141.481 220.650 C 141.706 220.650,142.089 221.087,142.333 221.621 C 142.657 222.334,143.038 222.573,143.759 222.520 C 145.605 222.383,146.006 222.563,146.405 223.709 L 146.805 224.857 149.904 224.857 L 153.003 224.857 153.403 223.709 C 153.623 223.078,154.048 222.562,154.348 222.562 C 154.647 222.562,155.090 222.128,155.332 221.597 C 155.574 221.066,156.180 220.529,156.679 220.404 C 158.540 219.937,157.259 219.309,154.058 219.120 C 149.415 218.847,147.694 217.447,147.529 213.808 C 147.422 211.446,147.457 211.341,148.558 210.722 L 149.698 210.080 149.574 205.606 L 149.451 201.132 150.548 200.750 L 151.645 200.367 151.635 195.891 L 151.625 191.414 152.716 190.887 L 153.807 190.360 153.562 186.289 C 153.305 182.020,153.387 181.657,154.780 180.923 C 155.760 180.407,156.049 176.852,155.182 175.985 C 154.535 175.338,148.386 175.355,148.343 176.004 C 148.326 176.267,148.337 177.448,148.368 178.628 C 148.426 180.845,147.815 182.027,146.610 182.027 C 146.128 182.027,146.085 182.800,146.311 187.366 L 146.575 192.705 145.336 193.389 L 144.096 194.073 144.268 197.132 C 144.470 200.744,144.384 201.084,143.143 201.556 C 142.425 201.829,142.215 202.166,142.268 202.965 C 142.384 204.732,142.290 204.972,141.300 205.423 C 140.549 205.766,140.344 206.142,140.344 207.181 C 140.344 208.493,138.004 211.472,136.973 211.472 C 136.752 211.472,136.465 211.808,136.335 212.218 C 136.205 212.627,135.789 213.061,135.411 213.181 C 135.033 213.301,134.530 213.826,134.292 214.348 C 134.054 214.869,133.625 215.296,133.339 215.296 C 133.053 215.296,132.623 215.727,132.383 216.252 C 132.023 217.043,131.680 217.208,130.400 217.208 C 129.103 217.208,128.794 217.362,128.490 218.162 C 128.047 219.328,121.268 219.608,120.349 218.497 C 120.094 218.189,119.512 217.558,119.055 217.095 C 118.270 216.298,118.222 215.871,118.151 209.178 C 118.059 200.469,117.970 201.202,119.174 200.744 L 120.184 200.361 119.984 196.147 C 119.778 191.798,120.043 190.822,121.430 190.822 C 121.853 190.822,121.987 189.844,122.072 186.142 L 122.180 181.462 123.270 180.940 C 124.310 180.442,124.544 177.275,123.649 175.813 C 123.279 175.209,117.008 175.487,116.766 176.117 " stroke="none" fill="#fcfcfc" fill-rule="evenodd"></path><path id="path1" d="M108.222 80.115 C 107.375 81.016,107.096 81.071,103.323 81.071 C 99.547 81.071,99.273 81.124,98.437 82.027 C 97.926 82.578,97.127 82.983,96.548 82.983 C 95.000 82.983,86.807 91.285,86.807 92.853 C 86.807 93.638,86.514 94.177,85.851 94.611 C 84.924 95.218,84.895 95.370,84.895 99.582 C 84.895 103.795,84.866 103.946,83.939 104.554 L 82.983 105.180 82.983 114.283 L 82.983 123.385 83.943 124.287 L 84.903 125.189 83.943 126.191 L 82.983 127.193 82.983 143.106 L 82.983 159.018 84.034 159.817 L 85.086 160.615 84.034 161.488 L 82.983 162.361 82.983 177.438 L 82.983 192.514 84.034 193.387 L 85.086 194.260 84.034 195.059 L 82.983 195.857 82.983 210.864 L 82.983 225.871 83.943 226.772 L 84.903 227.674 83.943 228.676 L 82.983 229.679 82.983 244.635 L 82.983 259.592 84.034 260.390 L 85.086 261.189 84.034 262.062 L 82.983 262.935 82.983 272.150 L 82.983 281.365 83.939 281.992 C 84.653 282.460,84.895 282.952,84.895 283.939 C 84.895 284.926,85.137 285.418,85.851 285.886 C 86.517 286.322,86.807 286.858,86.807 287.652 C 86.807 289.263,94.951 297.514,96.540 297.514 C 97.221 297.514,97.933 297.913,98.590 298.662 C 99.553 299.759,99.731 299.809,102.695 299.809 C 105.506 299.809,105.877 299.898,106.692 300.765 L 107.590 301.721 118.413 301.721 L 129.237 301.721 129.863 300.765 C 130.208 300.239,130.715 299.809,130.991 299.809 C 131.267 299.809,131.832 300.239,132.245 300.765 L 132.997 301.721 148.899 301.721 L 164.801 301.721 165.427 300.765 C 165.772 300.239,166.272 299.809,166.539 299.809 C 166.806 299.809,167.307 300.239,167.651 300.765 L 168.278 301.721 183.116 301.721 L 197.955 301.721 198.853 300.765 C 199.984 299.561,200.514 299.561,201.303 300.765 L 201.930 301.721 216.826 301.721 L 231.722 301.721 232.349 300.765 C 233.142 299.554,233.780 299.554,234.573 300.765 L 235.199 301.721 250.287 301.721 L 265.374 301.721 266.001 300.765 C 266.794 299.554,267.432 299.554,268.225 300.765 L 268.851 301.721 279.924 301.721 L 290.996 301.721 291.622 300.765 C 292.226 299.844,292.398 299.809,296.340 299.809 C 300.386 299.809,300.443 299.796,301.530 298.662 C 302.213 297.948,303.015 297.514,303.649 297.514 C 305.105 297.514,313.193 289.401,313.193 287.940 C 313.193 287.368,313.602 286.556,314.149 286.042 C 315.019 285.225,315.105 284.860,315.105 281.986 C 315.105 278.914,315.136 278.806,316.252 278.011 L 317.400 277.195 317.400 270.155 L 317.400 263.115 316.444 262.489 C 315.918 262.144,315.488 261.654,315.488 261.399 C 315.488 261.145,315.918 260.532,316.444 260.038 L 317.400 259.140 317.400 243.363 L 317.400 227.586 316.200 226.732 L 315.001 225.878 316.204 224.889 L 317.407 223.901 317.403 208.900 L 317.400 193.899 316.444 193.273 C 315.918 192.928,315.488 192.428,315.488 192.161 C 315.488 191.894,315.918 191.393,316.444 191.049 L 317.400 190.422 317.400 175.526 L 317.400 160.629 316.444 160.003 C 315.240 159.214,315.240 158.684,316.444 157.553 L 317.400 156.654 317.403 141.903 L 317.407 127.151 316.204 126.162 L 315.001 125.174 316.200 124.320 L 317.400 123.466 317.400 113.384 L 317.400 103.303 316.252 102.486 C 315.136 101.691,315.105 101.583,315.105 98.511 C 315.105 95.637,315.019 95.272,314.149 94.455 C 313.623 93.961,313.193 93.127,313.193 92.602 C 313.193 91.157,304.987 82.985,303.535 82.984 C 302.888 82.983,302.160 82.614,301.649 82.027 C 300.859 81.117,300.617 81.071,296.689 81.071 C 292.707 81.071,292.538 81.037,291.934 80.115 L 291.308 79.159 278.937 79.159 C 266.957 79.159,266.553 79.183,266.157 79.924 C 265.637 80.895,264.933 80.895,264.054 79.924 C 263.382 79.182,262.876 79.159,247.212 79.159 L 231.063 79.159 230.390 80.186 L 229.717 81.213 228.898 80.186 L 228.078 79.159 212.951 79.159 C 198.310 79.159,197.802 79.183,197.132 79.924 C 196.751 80.344,196.214 80.688,195.939 80.688 C 195.663 80.688,195.254 80.344,195.029 79.924 C 194.630 79.178,194.228 79.159,179.350 79.159 C 164.472 79.159,164.070 79.178,163.671 79.924 C 163.446 80.344,163.016 80.688,162.715 80.688 C 162.414 80.688,161.984 80.344,161.759 79.924 C 161.360 79.178,160.958 79.159,145.889 79.159 C 130.820 79.159,130.418 79.178,130.019 79.924 C 129.794 80.344,129.364 80.688,129.063 80.688 C 128.762 80.688,128.332 80.344,128.107 79.924 C 127.715 79.191,127.306 79.159,118.409 79.159 L 109.120 79.159 108.222 80.115 M185.883 157.433 C 187.130 158.638,187.353 159.072,187.167 159.934 C 186.818 161.547,187.300 162.780,187.938 161.908 C 188.397 161.280,188.454 161.289,188.861 162.049 C 189.362 162.985,188.880 163.494,187.840 163.126 C 187.482 163.000,187.619 163.232,188.144 163.643 C 188.847 164.194,189.067 164.684,188.981 165.509 C 188.869 166.577,189.514 167.633,190.474 167.953 C 190.711 168.032,190.949 169.089,191.003 170.302 C 191.082 172.086,191.294 172.709,192.109 173.560 C 192.752 174.231,193.117 175.038,193.117 175.790 C 193.117 176.624,193.395 177.150,194.073 177.594 C 194.912 178.144,195.029 178.493,195.029 180.462 C 195.029 182.431,195.145 182.780,195.985 183.330 C 196.685 183.789,196.941 184.294,196.941 185.219 C 196.941 186.072,197.251 186.774,197.897 187.380 C 198.679 188.115,198.853 188.640,198.853 190.268 C 198.853 191.716,199.035 192.396,199.522 192.765 C 199.977 193.109,200.057 193.118,199.770 192.792 C 199.319 192.278,199.496 190.560,200.034 190.227 C 200.425 189.986,200.800 191.403,200.698 192.734 C 200.514 195.137,200.789 196.192,201.845 197.133 C 202.672 197.869,202.888 198.352,202.765 199.187 C 202.636 200.066,202.836 200.444,203.788 201.122 C 204.873 201.894,204.971 202.145,204.972 204.137 C 204.972 206.711,207.173 209.502,208.797 208.986 C 209.346 208.812,209.487 208.590,209.242 208.285 C 209.019 208.007,209.021 207.479,209.248 206.883 C 209.603 205.954,209.628 205.948,210.160 206.670 C 210.698 207.399,210.707 207.398,210.707 206.621 C 210.707 206.186,210.967 205.614,211.285 205.350 C 211.774 204.945,211.782 204.805,211.335 204.443 C 210.943 204.125,210.895 203.697,211.151 202.772 C 211.526 201.413,212.081 201.148,212.356 202.199 C 212.452 202.567,212.551 202.233,212.575 201.457 C 212.600 200.680,212.802 199.933,213.024 199.795 C 213.252 199.654,213.326 199.075,213.193 198.470 C 212.950 197.364,213.750 196.318,214.081 197.310 C 214.175 197.592,214.483 197.259,214.779 196.553 C 215.071 195.859,215.203 194.954,215.072 194.541 C 214.739 193.492,215.731 191.606,216.088 192.609 C 216.263 193.099,216.423 192.795,216.625 191.587 C 216.783 190.641,217.080 189.659,217.285 189.405 C 217.489 189.151,217.567 188.799,217.458 188.622 C 217.348 188.445,217.417 188.050,217.610 187.745 C 217.851 187.364,217.963 187.339,217.967 187.667 C 217.971 187.930,218.145 188.145,218.356 188.145 C 218.566 188.145,218.738 187.639,218.738 187.021 C 218.738 186.402,218.922 185.782,219.147 185.644 C 219.371 185.505,219.453 185.126,219.329 184.802 C 219.012 183.976,219.494 182.541,219.879 183.164 C 220.078 183.485,220.372 183.234,220.799 182.380 C 221.275 181.424,221.315 181.054,220.964 180.837 C 220.605 180.616,220.612 180.312,220.992 179.477 C 221.464 178.441,221.502 178.428,222.022 179.140 C 222.516 179.816,222.562 179.732,222.562 178.151 C 222.562 176.803,222.772 176.227,223.518 175.526 C 224.063 175.014,224.474 174.200,224.474 173.632 C 224.474 173.085,224.742 172.254,225.069 171.787 C 225.403 171.310,225.487 170.937,225.261 170.937 C 224.710 170.937,224.748 169.902,225.312 169.553 C 225.564 169.397,225.842 169.497,225.936 169.776 C 226.188 170.532,227.074 167.661,226.901 166.650 C 226.699 165.471,227.392 164.407,227.874 165.155 C 228.114 165.528,228.297 165.191,228.496 164.008 C 228.651 163.087,229.186 161.846,229.685 161.252 C 230.184 160.657,230.593 159.772,230.593 159.284 C 230.593 158.746,231.129 157.926,231.956 157.199 L 233.320 156.002 238.744 156.108 L 244.168 156.214 244.266 190.016 C 244.377 228.380,244.746 224.857,240.614 224.857 C 235.884 224.857,236.329 227.540,236.329 199.032 C 236.329 173.037,236.394 173.973,234.567 173.528 C 233.272 173.212,232.505 173.889,232.505 175.345 C 232.505 176.321,232.261 176.815,231.549 177.282 C 230.857 177.735,230.593 178.248,230.593 179.139 C 230.593 180.025,230.271 180.657,229.446 181.393 C 228.661 182.092,228.298 182.772,228.298 183.544 C 228.298 184.200,227.961 184.988,227.493 185.424 C 226.877 185.998,226.672 186.687,226.620 188.347 C 226.563 190.230,226.416 190.619,225.514 191.276 C 224.745 191.836,224.474 192.363,224.474 193.296 C 224.474 194.220,224.218 194.726,223.518 195.185 C 222.818 195.644,222.562 196.149,222.562 197.074 C 222.562 197.927,222.252 198.629,221.606 199.235 C 220.826 199.968,220.650 200.496,220.650 202.103 C 220.650 203.710,220.474 204.239,219.694 204.971 C 219.141 205.491,218.738 206.296,218.738 206.883 C 218.738 207.460,218.341 208.270,217.819 208.761 C 217.313 209.236,216.785 210.256,216.645 211.027 C 216.505 211.798,216.043 212.699,215.617 213.030 C 215.024 213.492,214.820 214.153,214.744 215.862 C 214.660 217.773,214.501 218.196,213.633 218.829 C 212.937 219.335,212.620 219.916,212.620 220.682 C 212.620 223.582,207.057 226.335,205.350 224.279 C 204.924 223.765,204.821 223.769,204.423 224.313 C 203.918 225.004,202.764 224.115,203.216 223.383 C 203.338 223.185,203.200 222.457,202.908 221.764 C 202.472 220.725,202.348 220.635,202.206 221.246 C 202.057 221.883,201.968 221.832,201.582 220.890 C 201.297 220.197,201.263 219.633,201.490 219.360 C 201.720 219.082,201.655 218.662,201.307 218.186 C 201.009 217.778,200.748 216.918,200.727 216.275 C 200.690 215.164,200.675 215.153,200.424 216.057 C 200.126 217.126,199.771 216.782,199.233 214.905 C 198.987 214.050,199.047 213.696,199.478 213.455 C 199.980 213.174,199.976 213.076,199.451 212.640 C 199.122 212.367,198.850 211.777,198.847 211.330 C 198.843 210.718,198.758 210.647,198.507 211.043 C 198.324 211.333,197.982 211.452,197.748 211.307 C 197.207 210.973,197.190 209.560,197.727 209.560 C 197.954 209.560,197.870 209.187,197.536 208.710 C 197.209 208.243,196.941 207.447,196.941 206.943 C 196.941 206.170,196.850 206.100,196.367 206.501 C 195.897 206.891,195.793 206.865,195.793 206.357 C 195.793 206.015,195.966 205.736,196.176 205.736 C 196.386 205.736,196.214 205.392,195.793 204.971 C 195.311 204.489,195.029 203.697,195.029 202.827 C 195.029 201.743,194.903 201.496,194.440 201.674 C 193.758 201.936,193.018 200.424,193.521 199.796 C 193.695 199.579,193.678 199.148,193.483 198.840 C 193.288 198.532,193.126 197.892,193.122 197.419 C 193.117 196.541,192.357 196.167,192.346 197.036 C 192.342 197.364,192.230 197.340,191.989 196.959 C 191.555 196.273,191.863 195.689,192.474 196.040 C 192.722 196.183,192.560 195.884,192.112 195.377 C 191.665 194.870,191.178 193.779,191.030 192.952 C 190.852 191.952,190.657 191.617,190.451 191.952 C 190.212 192.337,190.040 192.270,189.716 191.664 C 189.198 190.696,189.165 189.675,189.652 189.675 C 189.850 189.675,189.765 189.202,189.463 188.623 C 189.162 188.045,188.897 187.141,188.874 186.616 L 188.834 185.660 188.569 186.612 C 188.381 187.287,188.215 187.421,187.999 187.072 C 187.832 186.801,187.789 186.335,187.904 186.036 C 188.018 185.737,187.970 185.405,187.797 185.298 C 187.623 185.191,187.353 184.196,187.196 183.087 C 187.039 181.978,186.830 181.286,186.731 181.549 C 186.633 181.812,186.389 182.027,186.189 182.027 C 185.691 182.027,185.112 180.395,185.442 179.924 C 185.589 179.713,185.509 178.956,185.264 178.241 C 184.992 177.446,184.712 177.114,184.544 177.387 C 184.062 178.166,183.471 177.387,183.695 176.269 C 183.995 174.765,182.777 173.215,181.879 173.960 C 181.323 174.421,181.262 176.821,181.262 198.134 L 181.262 221.796 179.742 223.362 C 178.232 224.918,178.208 224.927,176.014 224.702 C 174.799 224.578,173.337 224.468,172.766 224.459 C 171.602 224.439,170.971 223.778,171.692 223.333 C 172.048 223.113,172.059 222.847,171.737 222.245 C 171.121 221.095,171.412 156.584,172.035 156.182 C 172.062 156.165,174.849 156.111,178.229 156.062 L 184.373 155.974 185.883 157.433 M273.811 187.380 C 273.919 204.522,274.048 218.590,274.097 218.642 C 274.147 218.695,280.090 218.738,287.304 218.738 C 302.100 218.738,301.338 218.572,301.338 221.797 C 301.338 225.057,302.490 224.857,283.743 224.857 C 267.488 224.857,267.045 224.837,266.229 224.077 C 265.769 223.648,265.392 223.476,265.392 223.694 C 265.392 223.913,265.201 224.092,264.969 224.092 C 264.736 224.092,264.631 223.869,264.735 223.598 C 264.839 223.326,264.685 222.777,264.393 222.377 C 263.654 221.366,263.595 157.208,264.333 156.470 C 264.664 156.139,266.107 156.032,269.208 156.107 L 273.614 156.214 273.811 187.380 M245.889 190.631 C 245.889 211.986,245.757 223.364,245.507 223.518 C 245.253 223.675,245.124 212.616,245.124 190.631 C 245.124 168.646,245.253 157.587,245.507 157.744 C 245.757 157.898,245.889 169.276,245.889 190.631 M229.671 160.897 C 229.259 161.308,229.041 160.732,229.330 159.997 C 229.600 159.308,229.621 159.307,229.755 159.973 C 229.832 160.357,229.794 160.773,229.671 160.897 M190.822 166.562 C 190.822 167.125,190.367 167.295,189.956 166.884 C 189.612 166.540,190.086 165.556,190.480 165.799 C 190.668 165.916,190.822 166.259,190.822 166.562 M192.666 172.891 C 191.873 173.381,191.485 172.652,191.799 171.262 L 192.088 169.981 192.627 171.281 C 193.068 172.346,193.075 172.638,192.666 172.891 M124.044 177.944 C 124.370 180.115,124.348 180.202,123.183 181.404 C 122.002 182.623,121.989 182.681,121.989 186.590 C 121.989 190.316,121.933 190.594,121.033 191.429 C 120.131 192.265,120.076 192.542,120.076 196.282 C 120.076 200.019,120.021 200.301,119.120 201.147 C 118.168 202.042,118.164 202.071,118.164 209.079 L 118.164 216.113 119.556 217.425 C 121.461 219.221,127.167 219.455,128.263 217.782 C 128.687 217.136,129.239 216.826,129.970 216.826 C 131.573 216.826,138.556 209.614,138.226 208.300 C 138.082 207.724,138.216 207.221,138.599 206.904 C 139.001 206.570,139.197 206.548,139.197 206.837 C 139.197 207.073,139.369 207.266,139.579 207.266 C 139.790 207.266,139.962 206.846,139.962 206.332 C 139.962 205.819,140.149 205.283,140.377 205.142 C 140.665 204.964,140.671 204.763,140.395 204.487 C 140.120 204.212,140.122 203.856,140.403 203.331 C 140.724 202.732,140.876 202.682,141.130 203.092 C 141.380 203.497,141.503 203.445,141.690 202.857 C 141.822 202.443,142.077 201.824,142.257 201.483 C 142.448 201.121,142.428 200.707,142.209 200.488 C 141.964 200.243,141.992 199.488,142.288 198.311 C 142.769 196.400,143.239 196.387,143.508 198.279 C 143.598 198.910,143.697 198.254,143.729 196.820 C 143.760 195.386,143.964 193.881,144.182 193.474 C 144.455 192.964,144.455 192.734,144.182 192.734 C 143.667 192.734,143.736 190.746,144.334 188.337 C 144.798 186.468,144.815 186.450,145.095 187.572 C 145.253 188.203,145.440 188.891,145.510 189.101 C 145.580 189.312,145.651 187.930,145.668 186.032 C 145.689 183.566,145.868 182.337,146.293 181.729 C 146.700 181.149,146.744 180.880,146.432 180.880 C 146.111 180.880,146.047 180.363,146.217 179.127 C 146.556 176.654,146.992 176.191,147.269 178.011 L 147.501 179.541 147.556 177.992 C 147.633 175.789,148.067 175.526,151.625 175.526 C 155.302 175.526,155.641 175.769,155.641 178.404 C 155.641 180.000,155.463 180.530,154.685 181.262 C 153.782 182.110,153.728 182.386,153.728 186.183 C 153.728 190.051,153.688 190.249,152.677 191.304 C 151.670 192.355,151.625 192.569,151.625 196.297 C 151.625 199.951,151.567 200.243,150.684 201.038 C 149.805 201.828,149.738 202.156,149.678 205.941 C 149.617 209.752,149.553 210.060,148.612 211.042 C 145.455 214.337,148.440 218.910,153.658 218.772 C 158.116 218.654,158.326 219.170,155.120 222.360 L 152.612 224.857 149.894 224.857 C 148.400 224.857,146.833 224.673,146.413 224.448 C 145.908 224.177,145.495 224.167,145.194 224.416 C 144.891 224.668,144.435 224.631,143.823 224.303 C 142.947 223.834,142.938 223.793,143.633 223.390 C 144.334 222.983,144.332 222.967,143.577 222.956 C 142.755 222.944,140.239 220.555,139.837 219.407 C 139.334 217.968,137.112 218.552,135.107 220.650 C 133.418 222.417,133.143 222.562,131.472 222.562 C 130.008 222.562,129.415 222.781,128.357 223.709 C 126.480 225.357,119.364 225.493,118.320 223.901 C 117.890 223.244,117.379 222.962,116.686 223.002 L 115.679 223.059 116.730 223.218 C 118.082 223.423,118.056 223.595,116.451 225.065 L 115.121 226.284 114.878 224.992 C 114.721 224.153,114.818 223.468,115.157 223.036 C 115.629 222.434,115.615 222.421,115.010 222.896 C 114.447 223.337,114.340 224.071,114.340 227.517 C 114.340 231.611,114.340 231.614,113.161 232.664 C 112.012 233.688,111.985 233.790,112.094 236.679 C 112.268 241.258,108.224 244.251,104.793 242.081 C 104.446 241.862,104.064 241.866,103.792 242.092 C 102.958 242.784,102.391 241.468,102.665 239.477 C 102.909 237.698,103.614 235.900,103.627 237.021 C 103.630 237.296,103.805 237.415,104.015 237.285 C 104.226 237.155,104.398 236.233,104.398 235.236 C 104.398 234.238,104.613 233.195,104.876 232.916 C 105.258 232.511,105.258 232.374,104.876 232.234 C 104.289 232.019,104.316 230.262,104.946 227.725 C 105.409 225.856,105.427 225.839,105.707 226.960 C 106.208 228.960,106.249 228.924,106.280 226.457 C 106.296 225.128,106.494 223.698,106.719 223.277 C 106.999 222.753,107.004 222.365,106.735 222.040 C 106.519 221.779,106.412 221.231,106.497 220.821 C 106.582 220.412,106.761 219.238,106.894 218.214 C 107.138 216.331,107.631 216.218,107.946 217.973 C 108.040 218.499,108.141 217.802,108.170 216.424 C 108.199 215.027,108.429 213.713,108.690 213.451 C 109.049 213.092,109.055 212.817,108.715 212.272 C 108.470 211.880,108.337 211.239,108.417 210.847 C 108.498 210.455,108.670 209.316,108.799 208.317 C 109.053 206.353,109.721 205.842,109.800 207.553 C 109.827 208.131,109.990 207.514,110.163 206.181 C 110.336 204.849,110.665 203.532,110.895 203.255 C 111.200 202.888,111.191 202.711,110.862 202.601 C 110.536 202.492,110.488 201.638,110.688 199.505 C 110.965 196.551,111.618 195.469,111.716 197.801 C 111.795 199.683,112.457 194.413,112.449 191.969 C 112.440 189.424,113.459 184.776,113.539 186.998 C 113.625 189.384,114.328 187.418,114.334 184.774 C 114.338 183.446,114.513 182.036,114.724 181.642 C 114.935 181.248,114.960 180.835,114.779 180.723 C 114.599 180.612,114.591 179.633,114.763 178.548 C 115.114 176.327,115.488 175.634,115.488 177.205 C 115.488 177.803,115.651 178.147,115.870 178.011 C 116.080 177.881,116.252 177.476,116.252 177.109 C 116.252 175.787,117.071 175.494,120.453 175.608 L 123.709 175.717 124.044 177.944 M194.340 176.750 C 193.983 177.106,193.881 177.004,193.881 176.291 C 193.881 175.577,193.983 175.475,194.340 175.832 C 194.697 176.189,194.697 176.393,194.340 176.750 M196.700 181.358 C 197.037 182.617,196.999 182.792,196.390 182.792 C 195.640 182.792,195.406 182.320,195.665 181.328 C 195.946 180.254,196.408 180.267,196.700 181.358 M155.418 183.890 C 155.013 186.702,154.623 186.945,154.326 184.572 C 154.031 182.212,154.218 181.563,155.096 181.899 C 155.550 182.074,155.619 182.499,155.418 183.890 M123.874 183.652 C 123.859 184.546,123.712 185.621,123.548 186.042 L 123.249 186.807 123.023 186.042 C 122.816 185.341,122.622 182.998,122.715 182.314 C 122.881 181.081,123.897 182.254,123.874 183.652 M230.204 182.505 C 230.197 183.125,229.459 184.279,229.451 183.683 C 229.448 183.438,229.341 182.964,229.213 182.632 C 229.061 182.235,229.193 182.027,229.596 182.027 C 229.934 182.027,230.208 182.242,230.204 182.505 M198.470 186.042 C 198.470 186.358,198.298 186.616,198.088 186.616 C 197.878 186.616,197.706 186.358,197.706 186.042 C 197.706 185.727,197.878 185.468,198.088 185.468 C 198.298 185.468,198.470 185.727,198.470 186.042 M228.298 186.584 C 228.298 187.666,227.885 188.554,227.493 188.312 C 226.895 187.942,227.092 185.851,227.725 185.851 C 228.040 185.851,228.298 186.181,228.298 186.584 M121.950 193.426 C 121.893 195.562,121.432 196.986,121.122 195.985 C 120.739 194.749,120.661 192.571,120.981 192.053 C 121.486 191.235,121.990 191.949,121.950 193.426 M153.501 193.833 C 153.033 197.012,152.699 197.345,152.392 194.939 C 152.069 192.405,152.292 191.500,153.157 191.832 C 153.643 192.018,153.710 192.410,153.501 193.833 M226.313 192.380 C 226.238 192.607,226.012 192.792,225.813 192.792 C 225.613 192.792,225.388 192.607,225.312 192.380 C 225.237 192.154,225.462 191.969,225.813 191.969 C 226.163 191.969,226.388 192.154,226.313 192.380 M202.671 196.272 C 202.674 196.429,202.419 196.558,202.103 196.558 C 201.456 196.558,201.433 196.491,201.774 195.602 C 202.012 194.981,202.654 195.460,202.671 196.272 M224.092 196.367 C 224.092 196.683,223.920 196.941,223.709 196.941 C 223.499 196.941,223.327 196.683,223.327 196.367 C 223.327 196.052,223.499 195.793,223.709 195.793 C 223.920 195.793,224.092 196.052,224.092 196.367 M222.412 200.161 C 222.527 200.460,222.406 201.106,222.143 201.595 L 221.664 202.486 221.365 201.371 C 220.947 199.818,221.871 198.751,222.412 200.161 M119.896 201.930 C 120.222 202.457,119.711 206.119,119.312 206.119 C 118.912 206.119,118.401 202.457,118.727 201.930 C 118.863 201.710,119.126 201.530,119.312 201.530 C 119.497 201.530,119.760 201.710,119.896 201.930 M151.501 203.090 C 151.191 206.567,150.811 207.244,150.494 204.882 C 150.175 202.501,150.399 201.376,151.143 201.624 C 151.430 201.720,151.571 202.299,151.501 203.090 M206.434 206.390 C 205.817 207.134,205.213 206.399,205.555 205.321 C 205.821 204.484,205.856 204.477,206.352 205.155 C 206.744 205.692,206.764 205.993,206.434 206.390 M218.301 210.809 C 217.914 211.532,217.852 211.542,217.513 210.937 C 216.966 209.959,217.437 208.956,218.161 209.557 C 218.596 209.919,218.628 210.199,218.301 210.809 M149.581 213.162 C 149.384 215.458,148.902 216.541,148.632 215.296 C 147.911 211.966,147.992 211.342,149.119 211.560 C 149.559 211.644,149.677 212.054,149.581 213.162 M216.506 214.567 C 216.435 215.073,216.230 215.642,216.049 215.830 C 215.641 216.256,215.122 214.357,215.487 213.768 C 215.934 213.044,216.642 213.598,216.506 214.567 M131.549 215.615 C 131.549 216.153,131.118 216.401,130.558 216.186 C 130.264 216.073,130.119 215.827,130.235 215.639 C 130.502 215.207,131.549 215.188,131.549 215.615 M127.517 217.564 C 127.832 218.074,127.039 218.468,126.283 218.178 C 125.732 217.966,125.721 217.882,126.206 217.576 C 126.923 217.122,127.242 217.120,127.517 217.564 M156.884 218.030 C 156.563 218.351,155.895 218.364,154.417 218.080 L 152.390 217.691 154.857 217.641 C 156.714 217.603,157.215 217.699,156.884 218.030 M138.050 219.938 C 138.050 220.372,136.954 220.829,136.648 220.523 C 136.525 220.401,136.526 220.038,136.650 219.717 C 136.881 219.113,138.050 219.297,138.050 219.938 M214.458 219.914 C 214.383 220.140,214.158 220.325,213.958 220.325 C 213.758 220.325,213.533 220.140,213.458 219.914 C 213.382 219.688,213.607 219.503,213.958 219.503 C 214.308 219.503,214.534 219.688,214.458 219.914 M157.553 221.894 C 157.553 222.661,155.305 224.574,154.685 224.336 C 153.936 224.049,154.388 222.945,155.254 222.945 C 155.628 222.945,156.024 222.600,156.134 222.180 C 156.350 221.351,157.553 221.109,157.553 221.894 M180.929 224.195 C 180.419 224.706,179.719 224.188,179.985 223.496 C 180.157 223.048,180.321 223.022,180.749 223.377 C 181.096 223.665,181.161 223.963,180.929 224.195 M130.186 223.669 C 130.441 224.083,129.330 224.566,128.831 224.258 C 128.636 224.137,128.576 223.879,128.697 223.683 C 128.977 223.230,129.909 223.221,130.186 223.669 M212.266 223.815 C 212.218 224.272,211.694 224.183,211.530 223.690 C 211.446 223.438,211.583 223.300,211.836 223.384 C 212.088 223.468,212.282 223.662,212.266 223.815 M113.931 234.130 C 113.875 235.936,113.325 236.635,113.105 235.181 C 112.889 233.759,113.015 233.270,113.598 233.270 C 113.796 233.270,113.946 233.657,113.931 234.130 M112.170 241.169 C 112.516 241.515,111.659 242.490,111.238 242.229 C 110.710 241.904,110.839 240.918,111.409 240.918 C 111.689 240.918,112.032 241.031,112.170 241.169 " stroke="none" fill="#04a3ea" fill-rule="evenodd"></path><path id="path2" d="M123.805 11.446 C 122.496 12.795,122.371 13.109,122.371 15.057 C 122.371 16.911,122.246 17.273,121.415 17.817 L 120.459 18.444 120.459 41.317 C 120.459 61.601,120.391 64.258,119.858 64.791 C 119.339 65.310,117.745 65.392,108.238 65.392 L 97.220 65.392 96.593 66.348 C 96.045 67.186,95.693 67.304,93.750 67.304 C 91.863 67.304,91.410 67.446,90.702 68.260 C 90.199 68.839,89.464 69.216,88.837 69.216 C 88.089 69.216,87.303 69.747,86.007 71.128 C 84.641 72.582,83.942 73.040,83.087 73.040 C 82.358 73.040,81.608 73.411,80.957 74.092 C 80.404 74.670,79.343 75.746,78.601 76.482 C 77.725 77.350,77.250 78.181,77.249 78.847 C 77.247 79.589,76.664 80.436,75.143 81.904 C 73.471 83.518,73.040 84.180,73.040 85.135 C 73.040 85.995,72.768 86.515,72.084 86.963 C 71.242 87.515,71.128 87.860,71.128 89.866 C 71.128 91.873,71.015 92.217,70.172 92.769 C 69.279 93.354,69.216 93.606,69.216 96.575 C 69.216 99.677,68.761 100.956,67.659 100.956 C 66.746 100.956,67.276 105.821,68.260 106.466 C 69.357 107.184,69.780 117.066,68.757 118.088 C 68.409 118.436,62.066 118.547,42.549 118.547 L 16.801 118.547 15.475 119.873 L 14.149 121.198 14.149 125.239 L 14.149 129.280 15.475 130.605 C 16.667 131.797,17.013 131.931,18.908 131.931 C 20.733 131.931,21.099 132.059,21.641 132.887 L 22.268 133.843 45.002 133.843 C 59.942 133.843,67.990 133.979,68.476 134.239 C 69.505 134.790,69.632 152.493,68.615 153.510 C 68.081 154.044,65.176 154.111,42.407 154.111 L 16.801 154.111 15.475 155.437 L 14.149 156.762 14.149 160.803 L 14.149 164.844 15.475 166.170 C 16.689 167.384,16.991 167.495,19.064 167.495 C 21.056 167.495,21.402 167.610,21.953 168.451 L 22.580 169.407 45.439 169.407 C 62.709 169.407,68.410 169.519,68.757 169.866 C 69.407 170.516,69.407 186.272,68.757 186.922 C 68.409 187.269,62.041 187.380,42.436 187.380 L 16.573 187.380 16.078 188.304 C 15.806 188.812,15.261 189.313,14.867 189.416 C 14.218 189.585,14.150 190.019,14.153 193.941 L 14.157 198.279 15.437 199.522 C 16.549 200.603,16.977 200.765,18.718 200.765 C 20.463 200.765,20.848 200.912,21.726 201.912 L 22.732 203.059 45.515 203.059 C 62.726 203.059,68.411 203.172,68.757 203.518 C 69.407 204.168,69.407 219.924,68.757 220.574 C 68.409 220.921,62.066 221.033,42.549 221.033 L 16.801 221.033 15.475 222.358 L 14.149 223.684 14.149 227.725 L 14.149 231.765 15.475 233.091 C 16.667 234.283,17.013 234.417,18.908 234.417 C 20.733 234.417,21.099 234.545,21.641 235.373 L 22.268 236.329 45.002 236.329 C 59.942 236.329,67.990 236.465,68.476 236.725 C 69.503 237.274,69.629 253.070,68.615 254.084 C 68.081 254.618,65.173 254.685,42.365 254.685 L 16.716 254.685 15.437 255.927 L 14.157 257.170 14.153 261.307 L 14.149 265.443 15.541 266.756 C 16.794 267.938,17.153 268.069,19.130 268.069 C 21.051 268.069,21.406 268.189,21.953 269.025 L 22.580 269.981 45.439 269.981 C 62.709 269.981,68.410 270.093,68.757 270.440 C 69.088 270.771,69.216 273.416,69.216 279.931 L 69.216 288.963 70.172 289.795 C 70.792 290.334,71.128 291.026,71.128 291.767 C 71.128 292.562,71.418 293.098,72.084 293.534 C 72.765 293.980,73.042 294.506,73.045 295.359 C 73.049 296.483,74.453 298.338,76.639 300.111 C 76.973 300.382,77.247 301.103,77.247 301.713 C 77.247 303.416,81.434 307.457,83.198 307.457 C 84.112 307.457,84.609 307.689,84.913 308.255 C 85.675 309.680,87.719 311.258,88.817 311.270 C 89.455 311.277,90.200 311.659,90.702 312.237 C 91.223 312.835,91.938 313.193,92.615 313.193 C 93.291 313.193,94.006 313.551,94.527 314.149 L 95.358 315.105 109.081 315.105 C 117.809 315.105,123.073 315.249,123.543 315.501 C 124.263 315.886,124.283 316.581,124.283 341.741 L 124.283 367.585 125.768 369.070 L 127.252 370.554 131.134 370.554 L 135.016 370.554 136.342 369.229 C 137.533 368.038,137.667 367.690,137.667 365.802 C 137.667 363.789,138.561 362.141,139.651 362.141 C 139.822 362.141,139.962 351.765,139.962 339.082 C 139.962 321.657,140.074 315.911,140.421 315.564 C 141.190 314.795,158.465 314.925,159.246 315.706 C 159.780 316.240,159.847 319.148,159.847 341.946 L 159.847 367.585 161.332 369.070 L 162.816 370.554 166.590 370.551 L 170.363 370.548 171.797 369.189 C 173.140 367.916,173.231 367.685,173.231 365.568 C 173.231 363.578,173.346 363.231,174.187 362.680 L 175.143 362.054 175.143 339.212 C 175.143 317.570,175.180 316.338,175.843 315.738 C 176.952 314.734,191.950 314.792,192.866 315.804 C 193.442 316.441,193.499 318.826,193.499 342.203 L 193.499 367.903 194.825 369.229 L 196.150 370.554 200.032 370.554 L 203.914 370.554 205.399 369.070 C 206.769 367.699,206.883 367.421,206.883 365.446 C 206.883 363.586,207.008 363.225,207.839 362.680 L 208.795 362.054 208.795 339.180 C 208.795 318.896,208.863 316.239,209.396 315.706 C 210.119 314.984,224.726 314.804,226.029 315.501 C 226.749 315.886,226.769 316.581,226.769 341.741 L 226.769 367.585 228.253 369.070 L 229.738 370.554 233.620 370.554 L 237.502 370.554 238.827 369.229 C 240.021 368.035,240.153 367.692,240.153 365.785 C 240.153 364.001,240.304 363.534,241.109 362.835 L 242.065 362.004 242.065 339.187 C 242.065 317.569,242.102 316.338,242.764 315.738 C 243.786 314.813,258.899 314.785,259.820 315.706 C 260.354 316.240,260.421 319.176,260.428 342.188 L 260.434 368.069 261.931 369.312 C 263.393 370.525,263.516 370.554,267.132 370.554 L 270.836 370.554 272.320 369.070 C 273.691 367.699,273.805 367.421,273.805 365.446 C 273.805 363.586,273.930 363.225,274.761 362.680 L 275.717 362.054 275.717 339.180 C 275.717 318.896,275.785 316.239,276.318 315.706 C 276.841 315.184,278.602 315.105,289.825 315.105 L 302.730 315.105 303.561 314.149 C 304.272 313.332,304.719 313.193,306.646 313.193 C 308.627 313.193,308.974 313.078,309.525 312.237 C 309.969 311.559,310.495 311.281,311.331 311.281 C 312.251 311.281,312.903 310.862,314.305 309.369 C 315.636 307.952,316.379 307.457,317.178 307.457 C 318.640 307.457,323.136 302.956,323.136 301.492 C 323.136 300.808,323.723 299.939,325.048 298.662 C 326.526 297.237,326.960 296.553,326.960 295.646 C 326.960 294.816,327.240 294.289,327.916 293.846 C 328.625 293.382,328.872 292.884,328.872 291.923 C 328.872 291.016,329.159 290.376,329.828 289.795 L 330.784 288.963 330.784 279.256 C 330.784 273.295,330.937 269.263,331.180 268.809 C 331.565 268.088,332.259 268.069,357.374 268.069 L 383.173 268.069 384.703 266.584 L 386.233 265.099 386.226 261.135 L 386.219 257.170 384.722 255.927 C 383.468 254.886,382.911 254.685,381.291 254.685 C 379.623 254.685,379.215 254.526,378.334 253.537 L 377.311 252.390 354.507 252.390 C 337.279 252.390,331.589 252.278,331.243 251.931 C 330.474 251.162,330.604 233.887,331.385 233.106 C 331.919 232.571,334.827 232.505,357.625 232.505 L 383.264 232.505 384.749 231.020 L 386.233 229.535 386.233 225.762 L 386.233 221.989 384.754 220.554 C 383.432 219.272,383.066 219.120,381.295 219.120 C 379.673 219.120,379.153 218.947,378.427 218.164 L 377.541 217.208 354.796 217.208 C 333.245 217.208,332.016 217.172,331.417 216.509 C 330.413 215.400,330.471 200.402,331.483 199.486 C 332.119 198.910,334.498 198.853,357.775 198.853 L 383.368 198.853 384.450 197.706 C 385.046 197.075,385.691 196.558,385.883 196.558 C 386.076 196.558,386.233 194.731,386.233 192.498 L 386.233 188.438 384.749 186.953 C 383.378 185.582,383.100 185.468,381.125 185.468 C 379.264 185.468,378.903 185.344,378.359 184.512 L 377.732 183.556 354.859 183.556 C 334.575 183.556,331.918 183.488,331.385 182.955 C 330.662 182.233,330.482 167.626,331.180 166.323 C 331.565 165.603,332.259 165.583,357.374 165.583 L 383.173 165.583 384.703 164.098 L 386.233 162.613 386.226 158.649 L 386.219 154.685 384.722 153.442 C 383.468 152.401,382.911 152.199,381.291 152.199 C 379.623 152.199,379.215 152.040,378.334 151.052 L 377.311 149.904 354.444 149.904 C 332.226 149.904,331.564 149.883,331.180 149.165 C 330.482 147.862,330.662 133.254,331.385 132.532 C 331.919 131.998,334.827 131.931,357.631 131.931 L 383.276 131.931 384.754 130.497 L 386.233 129.063 386.233 125.239 L 386.233 121.415 384.754 119.981 C 383.403 118.670,383.092 118.547,381.131 118.547 C 379.264 118.547,378.904 118.423,378.359 117.591 L 377.732 116.635 354.891 116.635 C 333.248 116.635,332.016 116.598,331.417 115.935 C 330.859 115.319,330.784 113.947,330.784 104.411 L 330.784 93.587 329.828 92.701 C 329.015 91.947,328.872 91.475,328.872 89.546 C 328.872 87.548,328.758 87.203,327.916 86.651 C 327.243 86.210,326.960 85.680,326.960 84.863 C 326.960 83.921,326.423 83.180,324.123 80.946 C 321.826 78.716,321.261 77.937,321.159 76.858 C 321.044 75.643,320.915 75.515,319.694 75.401 C 318.597 75.299,317.826 74.730,315.418 72.246 C 313.081 69.836,312.253 69.216,311.373 69.216 C 310.688 69.216,309.926 68.853,309.369 68.260 C 308.614 67.457,308.122 67.304,306.287 67.304 C 304.380 67.304,304.024 67.183,303.477 66.348 L 302.850 65.392 288.111 65.392 C 278.683 65.392,273.106 65.249,272.633 64.996 C 271.913 64.611,271.893 63.917,271.893 38.802 L 271.893 13.003 270.408 11.473 L 268.923 9.943 264.877 9.943 C 261.070 9.943,260.803 9.994,260.373 10.803 C 260.122 11.276,259.600 11.888,259.213 12.163 C 258.676 12.544,258.509 13.158,258.509 14.741 C 258.509 16.569,258.370 16.944,257.361 17.842 L 256.214 18.864 256.214 41.669 C 256.214 58.897,256.102 64.586,255.755 64.933 C 254.986 65.702,237.711 65.572,236.930 64.791 C 236.395 64.257,236.329 61.349,236.329 38.551 L 236.329 12.912 234.844 11.427 L 233.360 9.943 229.586 9.943 L 225.813 9.943 224.379 11.422 C 223.068 12.773,222.945 13.084,222.945 15.045 C 222.945 16.912,222.820 17.272,221.989 17.817 L 221.033 18.444 221.033 41.285 C 221.033 62.928,220.996 64.159,220.333 64.759 C 219.224 65.763,204.226 65.705,203.310 64.693 C 202.734 64.057,202.677 61.683,202.677 38.472 L 202.677 12.950 201.434 11.453 L 200.191 9.956 196.227 9.950 L 192.262 9.943 190.777 11.473 C 189.420 12.872,189.293 13.182,189.293 15.097 C 189.293 16.908,189.164 17.275,188.337 17.817 L 187.380 18.444 187.380 41.522 C 187.380 63.947,187.360 64.611,186.641 64.996 C 185.655 65.523,171.132 65.523,170.147 64.996 C 169.427 64.611,169.407 63.916,169.407 38.756 L 169.407 12.912 167.923 11.427 L 166.438 9.943 162.378 9.943 C 160.145 9.943,158.317 10.100,158.317 10.293 C 158.317 10.485,157.801 11.130,157.170 11.725 C 156.178 12.662,156.023 13.080,156.023 14.820 C 156.023 16.489,155.860 16.973,155.067 17.662 L 154.111 18.494 154.111 41.310 C 154.111 62.928,154.074 64.159,153.412 64.759 C 152.302 65.763,137.304 65.705,136.388 64.693 C 135.813 64.057,135.755 61.681,135.755 38.447 L 135.755 12.900 134.321 11.422 L 132.887 9.943 129.063 9.956 L 125.239 9.968 123.805 11.446 M128.107 79.924 C 128.332 80.344,128.762 80.688,129.063 80.688 C 129.364 80.688,129.794 80.344,130.019 79.924 C 130.418 79.178,130.820 79.159,145.889 79.159 C 160.958 79.159,161.360 79.178,161.759 79.924 C 161.984 80.344,162.414 80.688,162.715 80.688 C 163.016 80.688,163.446 80.344,163.671 79.924 C 164.070 79.178,164.472 79.159,179.350 79.159 C 194.228 79.159,194.630 79.178,195.029 79.924 C 195.254 80.344,195.663 80.688,195.939 80.688 C 196.214 80.688,196.751 80.344,197.132 79.924 C 197.802 79.183,198.310 79.159,212.951 79.159 L 228.078 79.159 228.898 80.186 L 229.717 81.213 230.390 80.186 L 231.063 79.159 247.212 79.159 C 262.876 79.159,263.382 79.182,264.054 79.924 C 264.933 80.895,265.637 80.895,266.157 79.924 C 266.553 79.183,266.957 79.159,278.937 79.159 L 291.308 79.159 291.934 80.115 C 292.538 81.037,292.707 81.071,296.689 81.071 C 300.617 81.071,300.859 81.117,301.649 82.027 C 302.160 82.614,302.888 82.983,303.535 82.984 C 304.987 82.985,313.193 91.157,313.193 92.602 C 313.193 93.127,313.623 93.961,314.149 94.455 C 315.019 95.272,315.105 95.637,315.105 98.511 C 315.105 101.583,315.136 101.691,316.252 102.486 L 317.400 103.303 317.400 113.384 L 317.400 123.466 316.200 124.320 L 315.001 125.174 316.204 126.162 L 317.407 127.151 317.403 141.903 L 317.400 156.654 316.444 157.553 C 315.240 158.684,315.240 159.214,316.444 160.003 L 317.400 160.629 317.400 175.526 L 317.400 190.422 316.444 191.049 C 315.918 191.393,315.488 191.894,315.488 192.161 C 315.488 192.428,315.918 192.928,316.444 193.273 L 317.400 193.899 317.403 208.900 L 317.407 223.901 316.204 224.889 L 315.001 225.878 316.200 226.732 L 317.400 227.586 317.400 243.363 L 317.400 259.140 316.444 260.038 C 315.918 260.532,315.488 261.145,315.488 261.399 C 315.488 261.654,315.918 262.144,316.444 262.489 L 317.400 263.115 317.400 270.155 L 317.400 277.195 316.252 278.011 C 315.136 278.806,315.105 278.914,315.105 281.986 C 315.105 284.860,315.019 285.225,314.149 286.042 C 313.602 286.556,313.193 287.368,313.193 287.940 C 313.193 289.401,305.105 297.514,303.649 297.514 C 303.015 297.514,302.213 297.948,301.530 298.662 C 300.443 299.796,300.386 299.809,296.340 299.809 C 292.398 299.809,292.226 299.844,291.622 300.765 L 290.996 301.721 279.924 301.721 L 268.851 301.721 268.225 300.765 C 267.432 299.554,266.794 299.554,266.001 300.765 L 265.374 301.721 250.287 301.721 L 235.199 301.721 234.573 300.765 C 233.780 299.554,233.142 299.554,232.349 300.765 L 231.722 301.721 216.826 301.721 L 201.930 301.721 201.303 300.765 C 200.514 299.561,199.984 299.561,198.853 300.765 L 197.955 301.721 183.116 301.721 L 168.278 301.721 167.651 300.765 C 167.307 300.239,166.806 299.809,166.539 299.809 C 166.272 299.809,165.772 300.239,165.427 300.765 L 164.801 301.721 148.899 301.721 L 132.997 301.721 132.245 300.765 C 131.832 300.239,131.267 299.809,130.991 299.809 C 130.715 299.809,130.208 300.239,129.863 300.765 L 129.237 301.721 118.413 301.721 L 107.590 301.721 106.692 300.765 C 105.877 299.898,105.506 299.809,102.695 299.809 C 99.731 299.809,99.553 299.759,98.590 298.662 C 97.933 297.913,97.221 297.514,96.540 297.514 C 94.951 297.514,86.807 289.263,86.807 287.652 C 86.807 286.858,86.517 286.322,85.851 285.886 C 85.137 285.418,84.895 284.926,84.895 283.939 C 84.895 282.952,84.653 282.460,83.939 281.992 L 82.983 281.365 82.983 272.150 L 82.983 262.935 84.034 262.062 L 85.086 261.189 84.034 260.390 L 82.983 259.592 82.983 244.635 L 82.983 229.679 83.943 228.676 L 84.903 227.674 83.943 226.772 L 82.983 225.871 82.983 210.864 L 82.983 195.857 84.034 195.059 L 85.086 194.260 84.034 193.387 L 82.983 192.514 82.983 177.438 L 82.983 162.361 84.034 161.488 L 85.086 160.615 84.034 159.817 L 82.983 159.018 82.983 143.106 L 82.983 127.193 83.943 126.191 L 84.903 125.189 83.943 124.287 L 82.983 123.385 82.983 114.283 L 82.983 105.180 83.939 104.554 C 84.866 103.946,84.895 103.795,84.895 99.582 C 84.895 95.370,84.924 95.218,85.851 94.611 C 86.514 94.177,86.807 93.638,86.807 92.853 C 86.807 91.285,95.000 82.983,96.548 82.983 C 97.127 82.983,97.926 82.578,98.437 82.027 C 99.273 81.124,99.547 81.071,103.323 81.071 C 107.096 81.071,107.375 81.016,108.222 80.115 L 109.120 79.159 118.409 79.159 C 127.306 79.159,127.715 79.191,128.107 79.924 M171.872 156.439 C 171.731 156.667,171.814 157.053,172.057 157.296 C 172.537 157.776,173.360 156.923,172.992 156.328 C 172.725 155.896,172.174 155.950,171.872 156.439 M245.124 190.631 C 245.124 212.616,245.253 223.675,245.507 223.518 C 245.757 223.364,245.889 211.986,245.889 190.631 C 245.889 169.276,245.757 157.898,245.507 157.744 C 245.253 157.587,245.124 168.646,245.124 190.631 M229.330 159.997 C 229.173 160.396,229.135 160.811,229.245 160.922 C 229.594 161.270,229.901 160.699,229.755 159.973 C 229.621 159.307,229.600 159.308,229.330 159.997 M187.797 162.078 C 187.426 162.771,187.455 162.959,187.963 163.154 C 188.898 163.513,189.383 162.794,188.771 161.956 C 188.263 161.262,188.231 161.266,187.797 162.078 M226.919 165.802 C 226.624 166.977,227.296 167.886,227.964 167.217 C 228.450 166.732,228.106 164.818,227.533 164.818 C 227.331 164.818,227.054 165.261,226.919 165.802 M189.933 166.122 C 189.717 166.682,189.965 167.113,190.504 167.113 C 190.931 167.113,190.912 166.066,190.480 165.799 C 190.292 165.683,190.045 165.828,189.933 166.122 M225.112 169.662 C 224.585 170.189,224.884 170.937,225.621 170.937 C 226.464 170.937,226.491 170.890,226.154 170.012 C 225.908 169.370,225.530 169.243,225.112 169.662 M191.799 171.262 C 191.485 172.652,191.873 173.381,192.666 172.891 C 193.075 172.638,193.068 172.346,192.627 171.281 L 192.088 169.981 191.799 171.262 M193.881 176.291 C 193.881 177.004,193.983 177.106,194.340 176.750 C 194.697 176.393,194.697 176.189,194.340 175.832 C 193.983 175.475,193.881 175.577,193.881 176.291 M183.556 176.650 C 183.556 177.702,184.211 177.976,184.671 177.116 C 185.090 176.334,184.877 175.908,184.066 175.908 C 183.786 175.908,183.556 176.242,183.556 176.650 M114.962 177.629 C 114.807 178.470,114.622 179.454,114.550 179.814 C 114.478 180.174,114.658 180.667,114.949 180.909 C 115.761 181.583,116.033 180.414,115.606 178.084 L 115.243 176.099 114.962 177.629 M146.745 176.928 C 146.074 177.968,145.952 180.880,146.579 180.880 C 146.911 180.880,147.254 180.750,147.342 180.593 C 147.629 180.075,147.042 176.468,146.745 176.928 M220.992 179.477 C 220.432 180.707,221.141 181.583,222.071 180.811 C 222.695 180.293,222.688 180.050,222.022 179.140 C 221.502 178.428,221.464 178.441,220.992 179.477 M185.345 180.019 C 185.095 180.443,185.766 182.027,186.195 182.027 C 186.669 182.027,187.121 180.623,186.809 180.118 C 186.530 179.667,185.589 179.604,185.345 180.019 M195.665 181.328 C 195.406 182.320,195.640 182.792,196.390 182.792 C 196.999 182.792,197.037 182.617,196.700 181.358 C 196.408 180.267,195.946 180.254,195.665 181.328 M154.288 182.050 C 154.161 182.255,154.178 183.390,154.326 184.572 C 154.623 186.945,155.013 186.702,155.418 183.890 C 155.667 182.167,154.943 180.990,154.288 182.050 M122.715 182.314 C 122.622 182.998,122.816 185.341,123.023 186.042 L 123.249 186.807 123.548 186.042 C 124.102 184.625,123.959 182.027,123.327 182.027 C 123.011 182.027,122.736 182.156,122.715 182.314 M229.213 182.632 C 229.341 182.964,229.448 183.438,229.451 183.683 C 229.459 184.279,230.197 183.125,230.204 182.505 C 230.208 182.242,229.934 182.027,229.596 182.027 C 229.193 182.027,229.061 182.235,229.213 182.632 M219.319 183.533 C 218.992 184.563,219.724 185.569,220.096 184.600 C 220.226 184.262,220.166 183.689,219.963 183.326 C 219.631 182.733,219.567 182.753,219.319 183.533 M197.706 186.042 C 197.706 186.358,197.878 186.616,198.088 186.616 C 198.298 186.616,198.470 186.358,198.470 186.042 C 198.470 185.727,198.298 185.468,198.088 185.468 C 197.878 185.468,197.706 185.727,197.706 186.042 M112.838 188.337 C 112.266 191.442,112.381 192.925,113.193 192.925 C 113.908 192.925,114.142 190.241,113.663 187.534 L 113.332 185.660 112.838 188.337 M187.763 186.402 C 187.763 186.705,187.935 187.059,188.145 187.189 C 188.356 187.319,188.528 187.071,188.528 186.638 C 188.528 186.205,188.356 185.851,188.145 185.851 C 187.935 185.851,187.763 186.099,187.763 186.402 M227.151 186.976 C 227.151 188.248,227.717 188.832,228.067 187.921 C 228.478 186.849,228.313 185.851,227.725 185.851 C 227.345 185.851,227.151 186.231,227.151 186.976 M144.226 188.758 C 143.646 191.646,143.671 192.608,144.332 192.862 C 145.357 193.255,145.790 192.118,145.516 189.755 C 145.140 186.517,144.739 186.206,144.226 188.758 M217.470 187.910 C 217.344 188.236,217.394 188.598,217.581 188.713 C 218.069 189.014,218.360 188.388,218.001 187.808 C 217.764 187.424,217.647 187.446,217.470 187.910 M189.293 190.274 C 189.293 191.396,190.098 192.521,190.475 191.925 C 191.110 190.923,190.878 189.675,190.057 189.675 C 189.618 189.675,189.293 189.930,189.293 190.274 M199.829 190.546 C 199.713 190.908,199.542 191.450,199.449 191.750 C 199.261 192.359,200.119 193.252,200.513 192.858 C 200.878 192.494,200.811 191.105,200.397 190.450 C 200.093 189.969,200.010 189.983,199.829 190.546 M120.981 192.053 C 120.661 192.571,120.739 194.749,121.122 195.985 C 121.340 196.691,121.380 196.676,121.635 195.793 C 122.303 193.488,121.815 190.703,120.981 192.053 M152.332 192.173 C 152.211 192.489,152.238 193.733,152.392 194.939 C 152.699 197.345,153.033 197.012,153.501 193.833 C 153.766 192.030,152.874 190.762,152.332 192.173 M215.329 192.864 C 214.791 193.870,214.978 195.029,215.679 195.029 C 216.310 195.029,216.550 194.010,216.181 192.902 L 215.846 191.898 215.329 192.864 M225.312 192.380 C 225.388 192.607,225.613 192.792,225.813 192.792 C 226.012 192.792,226.238 192.607,226.313 192.380 C 226.388 192.154,226.163 191.969,225.813 191.969 C 225.462 191.969,225.237 192.154,225.312 192.380 M201.774 195.602 C 201.433 196.491,201.456 196.558,202.103 196.558 C 202.747 196.558,202.820 196.228,202.342 195.475 C 202.084 195.068,201.969 195.093,201.774 195.602 M191.830 196.092 C 191.724 196.264,191.774 196.625,191.941 196.895 C 192.179 197.280,192.295 197.257,192.473 196.794 C 192.714 196.167,192.158 195.561,191.830 196.092 M223.327 196.367 C 223.327 196.683,223.499 196.941,223.709 196.941 C 223.920 196.941,224.092 196.683,224.092 196.367 C 224.092 196.052,223.920 195.793,223.709 195.793 C 223.499 195.793,223.327 196.052,223.327 196.367 M110.764 198.566 C 110.377 201.787,110.450 202.677,111.102 202.677 C 111.975 202.677,112.163 201.787,111.868 199.037 C 111.547 196.040,111.091 195.845,110.764 198.566 M142.288 198.311 C 141.802 200.243,142.115 201.048,143.193 200.634 C 143.672 200.450,143.747 200.060,143.552 198.767 C 143.196 196.401,142.805 196.260,142.288 198.311 M213.130 197.540 C 212.828 198.328,213.621 199.152,214.162 198.611 C 214.600 198.173,214.269 196.941,213.714 196.941 C 213.519 196.941,213.257 197.210,213.130 197.540 M193.375 199.904 C 193.086 200.396,193.854 201.974,194.261 201.723 C 194.863 201.351,194.727 199.618,194.095 199.618 C 193.792 199.618,193.468 199.747,193.375 199.904 M221.263 199.937 C 221.154 200.113,221.200 200.758,221.365 201.371 L 221.664 202.486 222.143 201.595 C 222.819 200.336,221.986 198.766,221.263 199.937 M118.727 201.930 C 118.401 202.457,118.912 206.119,119.312 206.119 C 119.711 206.119,120.222 202.457,119.896 201.930 C 119.760 201.710,119.497 201.530,119.312 201.530 C 119.126 201.530,118.863 201.710,118.727 201.930 M150.435 202.078 C 150.306 202.414,150.332 203.676,150.494 204.882 C 150.811 207.244,151.191 206.567,151.501 203.090 C 151.624 201.710,150.856 200.981,150.435 202.078 M211.157 202.772 C 210.778 204.170,210.894 204.589,211.663 204.589 C 212.450 204.589,212.706 203.943,212.426 202.668 C 212.099 201.179,211.578 201.222,211.157 202.772 M140.389 203.357 C 140.080 203.934,140.077 204.233,140.376 204.418 C 141.051 204.834,141.626 203.997,141.195 203.226 C 140.846 202.602,140.788 202.612,140.389 203.357 M205.555 205.321 C 205.213 206.399,205.817 207.134,206.434 206.390 C 206.764 205.993,206.744 205.692,206.352 205.155 C 205.856 204.477,205.821 204.484,205.555 205.321 M209.219 206.954 C 208.803 208.052,209.415 209.010,210.145 208.404 C 210.646 207.988,210.487 206.646,209.893 206.279 C 209.707 206.164,209.403 206.468,209.219 206.954 M108.798 208.317 C 108.668 209.316,108.487 210.501,108.396 210.951 C 108.213 211.846,109.100 212.831,109.735 212.439 C 110.416 212.018,110.052 206.501,109.342 206.501 C 109.173 206.501,108.927 207.318,108.798 208.317 M138.456 207.046 C 137.925 207.685,138.152 208.795,138.815 208.795 C 139.414 208.795,139.695 207.787,139.296 207.074 C 138.983 206.514,138.900 206.511,138.456 207.046 M217.372 209.685 C 216.963 210.752,217.794 211.757,218.301 210.809 C 218.628 210.199,218.596 209.919,218.161 209.557 C 217.712 209.184,217.555 209.210,217.372 209.685 M197.323 210.274 C 197.323 210.976,197.955 211.739,198.268 211.415 C 198.750 210.916,198.570 209.760,197.992 209.642 C 197.531 209.547,197.323 209.743,197.323 210.274 M148.279 211.695 C 148.044 211.931,148.160 213.118,148.632 215.296 C 148.832 216.216,148.851 216.222,149.146 215.452 C 150.044 213.108,149.448 210.526,148.279 211.695 M199.143 213.604 C 198.874 213.873,199.474 216.071,199.945 216.542 C 200.341 216.938,200.925 214.336,200.570 213.760 C 200.315 213.347,199.490 213.257,199.143 213.604 M215.487 213.768 C 215.122 214.357,215.641 216.256,216.049 215.830 C 216.576 215.280,216.675 213.660,216.192 213.495 C 215.948 213.412,215.631 213.535,215.487 213.768 M130.235 215.639 C 130.119 215.827,130.264 216.073,130.558 216.186 C 131.118 216.401,131.549 216.153,131.549 215.615 C 131.549 215.188,130.502 215.207,130.235 215.639 M106.887 218.253 C 106.757 219.256,106.575 220.444,106.484 220.893 C 106.279 221.899,107.292 222.881,107.903 222.269 C 108.376 221.796,107.989 216.963,107.452 216.631 C 107.271 216.520,107.017 217.250,106.887 218.253 M126.206 217.576 C 125.721 217.882,125.732 217.966,126.283 218.178 C 127.039 218.468,127.832 218.074,127.517 217.564 C 127.242 217.120,126.923 217.122,126.206 217.576 M154.417 218.080 C 155.895 218.364,156.563 218.351,156.884 218.030 C 157.215 217.699,156.714 217.603,154.857 217.641 L 152.390 217.691 154.417 218.080 M136.650 219.717 C 136.362 220.465,136.708 220.807,137.460 220.518 C 138.216 220.228,138.217 219.649,137.462 219.359 C 137.123 219.229,136.779 219.381,136.650 219.717 M201.358 219.471 C 201.239 219.663,201.333 220.309,201.566 220.905 L 201.991 221.989 202.348 221.057 C 202.881 219.666,202.056 218.342,201.358 219.471 M213.458 219.914 C 213.533 220.140,213.758 220.325,213.958 220.325 C 214.158 220.325,214.383 220.140,214.458 219.914 C 214.534 219.688,214.308 219.503,213.958 219.503 C 213.607 219.503,213.382 219.688,213.458 219.914 M156.134 222.180 C 156.024 222.600,155.628 222.945,155.254 222.945 C 154.388 222.945,153.936 224.049,154.685 224.336 C 155.305 224.574,157.553 222.661,157.553 221.894 C 157.553 221.109,156.350 221.351,156.134 222.180 M114.891 223.364 C 114.757 223.581,114.754 224.327,114.884 225.021 L 115.121 226.284 116.520 225.002 C 117.290 224.297,117.846 223.656,117.755 223.578 C 117.295 223.183,115.104 223.019,114.891 223.364 M143.633 223.390 C 142.938 223.793,142.947 223.834,143.823 224.303 C 144.959 224.911,145.982 224.321,145.273 223.467 C 144.757 222.845,144.585 222.837,143.633 223.390 M171.705 223.317 C 171.268 223.593,171.240 223.783,171.584 224.127 C 172.192 224.735,173.278 224.277,172.993 223.533 C 172.733 222.855,172.498 222.816,171.705 223.317 M179.985 223.496 C 179.719 224.188,180.419 224.706,180.929 224.195 C 181.161 223.963,181.096 223.665,180.749 223.377 C 180.321 223.022,180.157 223.048,179.985 223.496 M203.240 223.344 C 202.882 223.924,203.853 224.981,204.318 224.516 C 204.746 224.087,204.413 222.945,203.859 222.945 C 203.654 222.945,203.376 223.124,203.240 223.344 M128.697 223.683 C 128.576 223.879,128.636 224.137,128.831 224.258 C 129.330 224.566,130.441 224.083,130.186 223.669 C 129.909 223.221,128.977 223.230,128.697 223.683 M211.530 223.690 C 211.614 223.943,211.807 224.136,211.960 224.120 C 212.417 224.073,212.329 223.549,211.836 223.384 C 211.583 223.300,211.446 223.438,211.530 223.690 M104.838 228.146 C 104.258 231.034,104.283 231.996,104.943 232.250 C 105.968 232.643,106.402 231.506,106.128 229.144 C 105.752 225.905,105.350 225.594,104.838 228.146 M113.070 233.556 C 112.977 233.714,112.993 234.445,113.105 235.181 C 113.275 236.303,113.356 236.395,113.606 235.755 C 114.216 234.191,113.770 232.363,113.070 233.556 M103.143 237.204 C 102.578 238.676,102.421 241.336,102.867 241.873 C 103.643 242.807,104.016 242.144,104.009 239.844 C 104.003 237.554,103.545 236.157,103.143 237.204 M110.899 241.469 C 110.899 241.772,111.051 242.114,111.238 242.229 C 111.659 242.490,112.516 241.515,112.170 241.169 C 111.715 240.714,110.899 240.907,110.899 241.469 " stroke="none" fill="#040405" fill-rule="evenodd"></path><path id="path3" d="" stroke="none" fill="#c010080" fill-rule="evenodd"></path><path id="path4" d="" stroke="none" fill="#c010080" fill-rule="evenodd"></path></g></svg>
